<?xml version="1.0" standalone="no"?>
<svg xmlns:xlink="http://www.w3.org/1999/xlink" id="wave" style="transform:rotate(0deg); transition: 0.3s" viewBox="0 0 1440 440" version="1.1" xmlns="http://www.w3.org/2000/svg"><defs><linearGradient id="sw-gradient-0" x1="0" x2="0" y1="1" y2="0"><stop stop-color="rgba(57.219, 62.216, 89.165, 1)" offset="0%"/><stop stop-color="rgba(159.745, 155.966, 147.613, 1)" offset="100%"/></linearGradient></defs><path style="transform:translate(0, 0px); opacity:1" fill="url(#sw-gradient-0)" d="M0,132L12,139.3C24,147,48,161,72,161.3C96,161,120,147,144,139.3C168,132,192,132,216,124.7C240,117,264,103,288,110C312,117,336,147,360,146.7C384,147,408,117,432,88C456,59,480,29,504,58.7C528,88,552,176,576,227.3C600,279,624,293,648,249.3C672,205,696,103,720,58.7C744,15,768,29,792,95.3C816,161,840,279,864,293.3C888,308,912,220,936,176C960,132,984,132,1008,161.3C1032,191,1056,249,1080,264C1104,279,1128,249,1152,249.3C1176,249,1200,279,1224,300.7C1248,323,1272,337,1296,337.3C1320,337,1344,323,1368,271.3C1392,220,1416,132,1440,80.7C1464,29,1488,15,1512,58.7C1536,103,1560,205,1584,249.3C1608,293,1632,279,1656,271.3C1680,264,1704,264,1716,264L1728,264L1728,440L1716,440C1704,440,1680,440,1656,440C1632,440,1608,440,1584,440C1560,440,1536,440,1512,440C1488,440,1464,440,1440,440C1416,440,1392,440,1368,440C1344,440,1320,440,1296,440C1272,440,1248,440,1224,440C1200,440,1176,440,1152,440C1128,440,1104,440,1080,440C1056,440,1032,440,1008,440C984,440,960,440,936,440C912,440,888,440,864,440C840,440,816,440,792,440C768,440,744,440,720,440C696,440,672,440,648,440C624,440,600,440,576,440C552,440,528,440,504,440C480,440,456,440,432,440C408,440,384,440,360,440C336,440,312,440,288,440C264,440,240,440,216,440C192,440,168,440,144,440C120,440,96,440,72,440C48,440,24,440,12,440L0,440Z"/></svg>