<?xml version="1.0" standalone="no"?>
<svg xmlns:xlink="http://www.w3.org/1999/xlink" id="wave" style="transform:rotate(180deg); transition: 0.3s" viewBox="0 0 1440 490" version="1.1" xmlns="http://www.w3.org/2000/svg"><defs><linearGradient id="sw-gradient-0" x1="0" x2="0" y1="1" y2="0"><stop stop-color="rgba(243, 106, 62, 1)" offset="0%"/><stop stop-color="rgba(255, 179, 11, 1)" offset="100%"/></linearGradient></defs><path style="transform:translate(0, 0px); opacity:1" fill="url(#sw-gradient-0)" d="M0,0L48,16.3C96,33,192,65,288,130.7C384,196,480,294,576,294C672,294,768,196,864,196C960,196,1056,294,1152,310.3C1248,327,1344,261,1440,196C1536,131,1632,65,1728,49C1824,33,1920,65,2016,138.8C2112,212,2208,327,2304,351.2C2400,376,2496,310,2592,302.2C2688,294,2784,343,2880,318.5C2976,294,3072,196,3168,187.8C3264,180,3360,261,3456,269.5C3552,278,3648,212,3744,196C3840,180,3936,212,4032,220.5C4128,229,4224,212,4320,171.5C4416,131,4512,65,4608,89.8C4704,114,4800,229,4896,261.3C4992,294,5088,245,5184,220.5C5280,196,5376,196,5472,196C5568,196,5664,196,5760,171.5C5856,147,5952,98,6048,73.5C6144,49,6240,49,6336,81.7C6432,114,6528,180,6624,220.5C6720,261,6816,278,6864,285.8L6912,294L6912,490L6864,490C6816,490,6720,490,6624,490C6528,490,6432,490,6336,490C6240,490,6144,490,6048,490C5952,490,5856,490,5760,490C5664,490,5568,490,5472,490C5376,490,5280,490,5184,490C5088,490,4992,490,4896,490C4800,490,4704,490,4608,490C4512,490,4416,490,4320,490C4224,490,4128,490,4032,490C3936,490,3840,490,3744,490C3648,490,3552,490,3456,490C3360,490,3264,490,3168,490C3072,490,2976,490,2880,490C2784,490,2688,490,2592,490C2496,490,2400,490,2304,490C2208,490,2112,490,2016,490C1920,490,1824,490,1728,490C1632,490,1536,490,1440,490C1344,490,1248,490,1152,490C1056,490,960,490,864,490C768,490,672,490,576,490C480,490,384,490,288,490C192,490,96,490,48,490L0,490Z"/></svg>